<svg t="1645959986736" class="icon" viewBox="0 0 1387 1024" version="1.1" xmlns="http://www.w3.org/2000/svg" p-id="3066" width="200" height="200"><path d="M429.824158 842.859345H255.383612l0.005528-212.662124h657.848991l116.704622-300.078647h92.281288l210.080482 300.078647v212.662124h-83.983545" fill="#FFCD7F" p-id="3067"></path><path d="M429.824158 815.218632H255.383612c7.330317 0 14.362115 2.907803 19.547513 8.104257a27.624129 27.624129 0 0 1 8.093201 19.536456l0.005528-212.662124a27.640714 27.640714 0 0 1-27.640714 27.640714h657.848991a27.618601 27.618601 0 0 0 25.755617-17.623719l116.699095-300.078647a27.640714 27.640714 0 0 1-25.755618 17.623719H1122.212985a27.662826 27.662826 0 0 1-22.648801-11.786l210.08601 300.078646a27.602017 27.602017 0 0 1-4.997441-15.849185v212.662125a27.640714 27.640714 0 0 1 27.640714-27.640714h-83.972489c-15.274259 0-27.640714 12.371984-27.640714 27.640714 0 15.274259 12.366455 27.640714 27.640714 27.640714h83.972489c15.274259 0 27.640714-12.366455 27.640714-27.640714v-212.662125a27.662826 27.662826 0 0 0-4.991913-15.849185L1144.861786 314.274917A27.668355 27.668355 0 0 0 1122.212985 302.483389h-92.27576a27.640714 27.640714 0 0 0-25.761145 17.623719l-116.699094 300.078646a27.640714 27.640714 0 0 1 25.761145-17.623719h-657.848991a27.640714 27.640714 0 0 0-27.640714 27.640714l-0.005528 212.662125a27.629658 27.629658 0 0 0 27.640714 27.640714h174.440546a27.640714 27.640714 0 0 0 0-55.286956z" fill="#6E6E96" p-id="3068"></path><path d="M626.963257 815.218632h411.796884v55.281427h-411.796884zM959.182526 357.764816a27.635186 27.635186 0 0 1-27.192934-32.759774L977.607826 82.922142H388.224883a27.640714 27.640714 0 0 1 0-55.281428h622.717644a27.640714 27.640714 0 0 1 27.159765 32.759774l-51.793169 274.837147a27.65177 27.65177 0 0 1-27.126597 22.527181zM456.889945 241.242623H297.944783a27.640714 27.640714 0 0 1 0-55.281428h158.945162a27.640714 27.640714 0 0 1 0 55.281428zM391.503072 376.488636H144.052345a27.640714 27.640714 0 0 1 0-55.281428H391.503072a27.640714 27.640714 0 0 1 0 55.281428zM329.156677 516.002375H41.461071a27.640714 27.640714 0 0 1 0-55.281427h287.695606a27.640714 27.640714 0 0 1 0 55.281427z" fill="#6E6E96" p-id="3069"></path><path d="M1330.203829 627.28389l-151.714351-349.102217h-209.986503l-60.809571 349.102217z" fill="#87DDF0" p-id="3070"></path><path d="M1168.395089 306.397314l127.440276 293.245862h-249.341352l-50.361381-293.245862z" fill="#FFFFFF" opacity=".22" p-id="3071"></path><path d="M1169.865575 599.643176l-125.030005-293.820789h65.807012l128.324778 293.820789z" fill="#FFFFFF" opacity=".31" p-id="3072"></path><path d="M907.682348 654.924603h422.510424a27.624129 27.624129 0 0 0 25.352063-38.658302l-151.703294-349.096689a27.640714 27.640714 0 0 0-25.352063-16.623125h-209.980975a27.640714 27.640714 0 0 0-27.640714 27.640714l-60.809571 349.096689a27.640714 27.640714 0 0 0 27.62413 27.640713z m399.397259-42.804409a27.679411 27.679411 0 0 1 23.124222-12.482546h-422.510425a27.640714 27.640714 0 0 1 27.640714 27.640713l60.809571-349.09116a27.640714 27.640714 0 0 1-27.640714 27.640714h209.980975a27.657298 27.657298 0 0 1-25.352063-16.634182l151.708823 349.102217a27.718108 27.718108 0 0 1 2.238897-26.175756z" fill="#6E6E96" p-id="3073"></path><path d="M1255.584957 638.340175h69.090729l-151.703294-349.102217h-209.99756v63.573642h168.536489z" fill="#6E6E96" opacity=".2" p-id="3074"></path><path d="M283.024326 763.530497h1049.280197v51.688135H283.024326z" fill="#6E6E96" opacity=".15" p-id="3075"></path><path d="M1205.45019 921.194744a112.608268 132.498526 30.037 1 0-194.970483-112.734198 112.608268 132.498526 30.037 1 0 194.970483 112.734198Z" fill="#F0F0FF" p-id="3076"></path><path d="M1091.343835 1020.329313c-22.510597 0-44.479437-5.826662-63.534945-16.844251-66.945809-38.713584-85.454031-132.393491-41.251001-208.831122 30.415842-52.59475 83.303584-85.266074 138.032197-85.266074 22.510597 0 44.484965 5.826662 63.540473 16.844251 66.940281 38.708056 85.448503 132.393491 41.245473 208.831122-30.415842 52.59475-83.309112 85.266074-138.032197 85.266074z m33.246251-255.660019c-34.523252 0-69.91995 22.632217-90.175065 57.658529-28.939827 50.051805-19.486703 109.849725 21.07328 133.305635 10.807519 6.246801 22.875455 9.414427 35.861063 9.414427 34.523252 0 69.91995-22.632217 90.175065-57.658529 28.939827-50.051805 19.486703-109.855253-21.067753-133.305635-10.807519-6.246801-22.875455-9.414427-35.86659-9.414427z" fill="#6E6E96" p-id="3077"></path><path d="M1133.17057 878.950938a31.665202 37.259682 30.037 1 0-54.825278-31.700614 31.665202 37.259682 30.037 1 0 54.825278 31.700614Z" fill="#6E6E96" p-id="3078"></path><path d="M612.0543 916.132055a112.597212 132.48747 27.021 1 0-200.612217-102.309665 112.597212 132.48747 27.021 1 0 200.612217 102.309665Z" fill="#F0F0FF" p-id="3079"></path><path d="M496.327715 1021.213816c-20.282756 0-39.581502-4.599415-57.354481-13.665569-34.136282-17.408122-58.156062-49.006986-67.631299-88.986514-9.088267-38.326614-3.598821-80.014339 15.456687-117.368 28.680005-56.254381 83.762419-92.596392 140.326377-92.596391 20.282756 0 39.575974 4.593887 57.348953 13.660041 34.136282 17.408122 58.156062 49.006986 67.636827 88.986514 9.088267 38.332142 3.598821 80.019867-15.456687 117.373527-28.685533 56.248853-83.767948 92.596392-140.326377 92.596392z m30.797284-257.335046c-35.98821 0-71.744237 24.506257-91.081681 62.429316-13.101698 25.68928-16.976926 53.927033-10.912554 79.505749 5.671874 23.93133 19.508816 42.572228 38.956823 52.489716 9.923016 5.058251 20.769232 7.628837 32.240128 7.628837 35.98821 0 71.738709-24.506257 91.081681-62.429316 13.101698-25.68928 16.976926-53.927033 10.912554-79.50575-5.671874-23.93133-19.508816-42.577756-38.956823-52.495244-9.928544-5.058251-20.774761-7.623309-32.240128-7.623308z" fill="#6E6E96" p-id="3080"></path><path d="M537.759496 877.601652a31.665202 37.259682 27.019 1 0-56.418265-28.770112 31.665202 37.259682 27.019 1 0 56.418265 28.770112Z" fill="#6E6E96" p-id="3081"></path></svg>