<svg t="1646382715439" class="icon" viewBox="0 0 1027 1024" version="1.1" xmlns="http://www.w3.org/2000/svg" p-id="2865" width="200" height="200"><path d="M68.648308 525.473233H983.005695v476.40871H68.648308z" fill="#E4BC96" p-id="2866"></path><path d="M913.60268 235.13407H144.277655L31.590486 439.239397h972.671357z" fill="#FFE9D4" p-id="2867"></path><path d="M522.274305 121.374874V19.296482L152.862446 296.068074l-64.390218 133.93474z" fill="#C2F3FF" p-id="2868"></path><path d="M522.274305 19.296482l380.428007 271.308543 53.378358 139.397789-433.806365-308.62794z" fill="#83DCF2" p-id="2869"></path><path d="M88.472228 430.002814h867.608442L522.274305 121.374874z" fill="#C2C2C2" p-id="2870"></path><path d="M522.274305 157.424992l383.133802 272.58211h50.672563L522.274305 121.374874 88.472228 430.007102h45.634037z" opacity=".12" p-id="2871"></path><path d="M522.274305 125.607236l427.863048 304.399866h5.943317L522.274305 121.374874 88.472228 430.007102h5.947604z" opacity=".24" p-id="2872"></path><path d="M58.386868 864.276583h936.003752V1004.703518H58.386868z" fill="#C2C2C2" p-id="2873"></path><path d="M993.996114 864.276583H58.386868l9.352361-11.28201h916.904523z" fill="#DEDEDE" p-id="2874"></path><path d="M268.898626 627.015611h506.601273v377.580704H268.898626z" fill="#8B5C29" p-id="2875"></path><path d="M31.590486 439.243685h972.671357v185.662178H31.590486z" fill="#E4BC96" p-id="2876"></path><path d="M31.590486 439.243685h972.671357v185.662178H31.590486z" fill="#E4BC96" opacity=".14" p-id="2877"></path><path d="M31.590486 477.85809h972.671357v110.706064H31.590486z" fill="#CFAA88" p-id="2878"></path><path d="M212.763015 624.901575h601.908744v29.240603H212.763015z" fill="#DBDBDB" p-id="2879"></path><path d="M31.590486 584.276047h972.671357v6.406432H31.590486z" fill="#FFFFFF" opacity=".63" p-id="2880"></path><path d="M31.590486 477.85809h972.671357v7.165428H31.590486z" fill="#5A3D1C" opacity=".25" p-id="2881"></path><path d="M268.898626 654.142178h505.910888v35.947202H268.898626z" opacity=".15" p-id="2882"></path><path d="M525.576147 314.035243m-73.798325 0a73.798325 73.798325 0 1 0 147.59665 0 73.798325 73.798325 0 1 0-147.59665 0Z" opacity=".38" p-id="2883"></path><path d="M212.763015 624.901575H814.01139v4.553969H212.763015z" opacity=".25" p-id="2884"></path><path d="M68.648308 624.905863H983.005695v65.183517H68.648308z" opacity=".11" p-id="2885"></path></svg>