<svg t="1646382622461" class="icon" viewBox="0 0 1189 1024" version="1.1" xmlns="http://www.w3.org/2000/svg" p-id="2521" width="200" height="200"><path d="M934.217976 253.376127l-18.991159-62.352473L603.001487 28.742084l-303.448065 223.798795-88.884729-0.114548v742.936587h795.561998V253.466811z" fill="#FF9FA6" p-id="2522"></path><path d="M234.532928 562.112507l61.808368-255.347313 319.88575-128.866869 286.265816 105.002634 103.737829 279.211548v-324.553595l-412.221248-170.066083-366.874428 172.452507z" fill="#6E6E96" opacity=".2" p-id="2523"></path><path d="M982.366456 253.466811v741.891334c0-13.182603 10.667313-23.864235 23.864235-23.864235H210.668693a23.864235 23.864235 0 0 1 23.864235 23.864235V252.426331h-47.72847v742.936587a23.864235 23.864235 0 0 0 23.864235 23.864235h795.576316a23.864235 23.864235 0 0 0 23.864235-23.864235V253.466811h-47.742788z" fill="#6E6E96" p-id="2524"></path><path d="M410.732119 639.0508h389.531133v356.312118H410.732119z" fill="#C7C7C7" p-id="2525"></path><path d="M824.127487 1019.227153H386.867884v-404.040588h437.259603v404.040588z m-389.531133-47.72847h341.802663v-308.583648H434.596354v308.583648z" fill="#6E6E96" p-id="2526"></path><path d="M1021.909493 200.970268L611.353969 41.652636V40.282828l-1.756408 0.682518-1.765953-0.682518v1.369808l-410.555524 159.317632-77.530126 307.051564H194.01623l64.934583-260.917226 350.646748-129.802346 350.641976 129.802346 64.929811 260.912453h74.275044z" fill="#ACCAE0" p-id="2527"></path><path d="M1028.815803 183.172321l-410.555524-159.317632a19.091388 19.091388 0 0 1 12.185078 17.797947V40.282828a19.081842 19.081842 0 0 0-26.007243-17.793173l-1.756408 0.682517a19.115252 19.115252 0 0 1 13.807846-0.009546l-1.765953-0.682517a19.086615 19.086615 0 0 0-25.973833 17.807492v1.369807a19.091388 19.091388 0 0 1 12.189851-17.797946l-410.560297 159.317632a19.091388 19.091388 0 0 0-11.602791 13.125329L101.236857 503.344442a19.091388 19.091388 0 0 0 18.513874 23.768778h74.265499a19.105706 19.105706 0 0 0 18.532964-14.485591l64.929811-260.917225a19.072297 19.072297 0 0 1-11.898708 13.292379l350.646749-129.802347a19.057978 19.057978 0 0 1-13.249423 0l350.641976 129.802347a19.081842 19.081842 0 0 1-11.898708-13.292379l64.92981 260.912453a19.086615 19.086615 0 0 0 18.528192 14.480817h74.275045a19.081842 19.081842 0 0 0 18.5091-23.764005l-77.534899-307.051564a19.139116 19.139116 0 0 0-11.612336-13.115784z m70.628589 305.75335h-74.275044a19.091388 19.091388 0 0 1 18.528191 14.480818L978.767729 242.498809a19.077069 19.077069 0 0 0-11.893934-13.292379l-350.646749-129.807119a19.057978 19.057978 0 0 0-13.249423 0L252.321328 229.201657a19.081842 19.081842 0 0 0-11.898707 13.292379l-64.934583 260.917226a19.091388 19.091388 0 0 1 18.528192-14.480818H119.745958c5.880147 0 11.440514 2.71575 15.063105 7.35973a19.124798 19.124798 0 0 1 3.450768 16.409048l77.530126-307.051564a19.115252 19.115252 0 0 1-11.602791 13.125329l410.555524-159.317632a19.091388 19.091388 0 0 0 12.185079-17.797947V40.282828a19.077069 19.077069 0 0 1-25.969061 17.807493l1.761181 0.682517c4.448293 1.718225 9.369099 1.713452 13.807846-0.009546l1.756408-0.682517a19.105706 19.105706 0 0 1-26.016789-17.797947v1.369808a19.091388 19.091388 0 0 0 12.185078 17.797946l410.560297 159.317632a19.110479 19.110479 0 0 1-11.607564-13.125329l77.534899 307.051564a19.057978 19.057978 0 0 1 3.455542-16.409048 19.043659 19.043659 0 0 1 15.048786-7.35973z" fill="#6E6E96" p-id="2528"></path><path d="M430.004875 662.915035h350.995167v40.00123h-350.995167z" fill="#6E6E96" opacity=".2" p-id="2529"></path><path d="M842.832275 662.915035h-470.125428a23.864235 23.864235 0 1 1 0-47.72847h470.125428c13.182603 0 23.864235 10.681632 23.864234 23.864235s-10.681632 23.864235-23.864234 23.864235z" fill="#6E6E96" p-id="2530"></path><path d="M497.994081 317.107953h221.937384v200.459573h-221.937384z" fill="#5FCEFF" p-id="2531"></path><path d="M521.858315 493.703291l152.731104-152.731103h-152.731104z" fill="#B0E7FF" p-id="2532"></path><path d="M719.931465 493.703291h-221.937384a23.864235 23.864235 0 0 1 23.864234 23.864235v-200.459573a23.864235 23.864235 0 0 1-23.864234 23.864235h221.937384a23.864235 23.864235 0 0 1-23.864235-23.864235v200.459573a23.864235 23.864235 0 0 1 23.864235-23.864235z m0-200.459573h-221.937384a23.864235 23.864235 0 0 0-23.864235 23.864235v200.459573a23.864235 23.864235 0 0 0 23.864235 23.864235h221.937384c13.182603 0 23.864235-10.676859 23.864235-23.864235v-200.459573a23.864235 23.864235 0 0 0-23.864235-23.864235z" fill="#6E6E96" p-id="2533"></path><path d="M497.994081 441.201974h221.937384a23.864235 23.864235 0 1 0 0-47.728469h-221.937384a23.864235 23.864235 0 0 0 0 47.728469zM606.576349 1019.227153a23.864235 23.864235 0 0 1-23.864235-23.864235v-356.312118a23.864235 23.864235 0 1 1 47.72847 0v356.312118a23.864235 23.864235 0 0 1-23.864235 23.864235z" fill="#6E6E96" p-id="2534"></path><path d="M632.827008 517.562753v-200.459573a23.864235 23.864235 0 1 0-47.72847 0v200.459573a23.864235 23.864235 0 0 0 23.864235 23.864235c13.182603 0 23.864235-10.676859 23.864235-23.864235z" fill="#6E6E96" p-id="2535"></path><path d="M668.62336 932.008147v-229.096654h-40.569199v229.096654h-393.521233v39.490536h747.833528v-39.490536z" fill="#6E6E96" opacity=".15" p-id="2536"></path></svg>