<svg t="1646382696585" class="icon" viewBox="0 0 1189 1024" version="1.1" xmlns="http://www.w3.org/2000/svg" p-id="2710" width="200" height="200"><path d="M1006.230691 354.10229v641.260628H210.668693V353.057036" fill="#FFFFFF" p-id="2711"></path><path d="M982.366456 354.10229v641.260628c0-13.182603 10.66254-23.864235 23.864235-23.864235H210.668693a23.864235 23.864235 0 0 1 23.864235 23.864235V353.057036h-47.72847v642.305882a23.864235 23.864235 0 0 0 23.864235 23.864235h795.576316a23.864235 23.864235 0 0 0 23.864235-23.864235V354.10229h-47.742788z" fill="#6E6E96" p-id="2712"></path><path d="M1102.360602 354.245475L114.548327 352.909078 614.919286 38.182776z" fill="#8BC2F5" p-id="2713"></path><path d="M367.303985 628.932364h482.463236v356.307346H367.303985z" fill="#F5CBA4" p-id="2714"></path><path d="M391.16822 994.794949v-356.312118l-23.864235 23.864235h482.463236l-23.864235-23.864235v356.312118l23.864235-23.864235H367.303985l23.864235 23.864235z m482.463236 0v-380.176353H343.43975v404.040588h530.191706v-23.864235z" fill="#6E6E96" p-id="2715"></path><path d="M114.548327 352.909078h987.430447v132.84265H114.548327z" fill="#8BC2F5" p-id="2716"></path><path d="M114.548327 376.773313h987.430447a23.864235 23.864235 0 0 1-23.864235-23.864235v132.84265a23.864235 23.864235 0 0 1 23.864235-23.864235H114.548327a23.864235 23.864235 0 0 1 23.864235 23.864235V352.909078a23.864235 23.864235 0 0 1-23.864235 23.864235z m0 132.84265h987.430447a23.864235 23.864235 0 0 0 23.864235-23.864235V352.909078a23.864235 23.864235 0 0 0-23.864235-23.864235H114.548327c-13.196922 0-23.864235 10.686404-23.864234 23.864235v132.84265a23.864235 23.864235 0 0 0 23.864234 23.864235z" fill="#6E6E96" p-id="2717"></path><path d="M614.919286 136.026139l336.227978 218.014104 151.213338 0.205232L614.919286 38.182776 114.548327 352.909078l155.22253 0.210005z" fill="#6E6E96" opacity=".15" p-id="2718"></path><path d="M1102.394012 330.38124l-987.812275-1.336397a23.859462 23.859462 0 0 1 12.671909 44.062924l500.370958-314.726303a23.869008 23.869008 0 0 1-25.692235-0.176595l487.441316 316.062699a23.869008 23.869008 0 0 1 13.020327-43.886328zM602.213967 17.984087L101.843009 332.705617a23.888099 23.888099 0 0 0-10.24253 26.794763 23.864235 23.864235 0 0 0 22.919211 17.26816l987.812275 1.336397a23.873781 23.873781 0 0 0 13.020326-43.886328L627.906202 18.160683a23.864235 23.864235 0 0 0-25.692235-0.176596z" fill="#6E6E96" p-id="2719"></path><path d="M138.412562 420.024852h939.701977v39.738724H138.412562zM234.532928 509.615963h747.847846v45.342046H234.532928zM391.16822 662.342293h434.734766v31.023506H391.16822z" fill="#6E6E96" opacity=".15" p-id="2720"></path><path d="M582.712114 662.342293h47.72847v322.959464h-47.72847z" fill="#6E6E96" p-id="2721"></path><path d="M626.102066 648.543993l228.881877 322.883098-38.936886 27.606146-228.886649-322.883097z" fill="#6E6E96" p-id="2722"></path><path d="M806.157718 648.892411l39.485763 26.809081-219.283681 322.973782-39.485763-26.809082zM586.97904 648.725361l39.161209 27.286366-215.417675 309.161163-39.16121-27.286366z" fill="#6E6E96" p-id="2723"></path><path d="M398.656816 636.588011l227.325929 320.53963-38.932113 27.61092-227.330701-320.53963z" fill="#6E6E96" p-id="2724"></path><path d="M234.532928 929.63127h747.843074v41.86264H234.532928z" fill="#6E6E96" opacity=".2" p-id="2725"></path></svg>